<?xml version="1.0" standalone="no"?>
<!DOCTYPE svg PUBLIC "-//W3C//DTD SVG 20010904//EN"
 "http://www.w3.org/TR/2001/REC-SVG-20010904/DTD/svg10.dtd">
<svg version="1.0" xmlns="http://www.w3.org/2000/svg"
 width="1204.000000pt" height="1204.000000pt" viewBox="0 0 1204.000000 1204.000000"
 preserveAspectRatio="xMidYMid meet">
<metadata>
Created by potrace 1.11, written by Peter Selinger 2001-2013
</metadata>
<g transform="translate(0.000000,1204.000000) scale(0.100000,-0.100000)"
fill="#000000" stroke="none">
<path d="M10965 9228 c-11 -6 -21 -12 -23 -13 -2 -2 -5 -17 -7 -33 -8 -66 29
-80 260 -97 28 -2 50 -5 50 -6 0 -1 14 -2 30 -4 119 -11 172 -17 187 -21 12
-4 -69 -91 -308 -329 -298 -299 -324 -328 -324 -359 0 -38 15 -55 56 -61 16
-2 40 -6 54 -9 14 -3 50 -8 81 -10 30 -3 75 -7 100 -11 87 -11 145 -16 181
-18 21 -1 38 -4 38 -7 0 -3 17 -6 38 -7 20 -1 71 -4 112 -7 41 -4 81 -3 89 2
16 11 22 70 10 93 -12 23 -41 29 -274 54 -22 3 -56 7 -75 9 -19 2 -57 7 -85
10 -27 4 -67 9 -89 12 l-39 6 154 150 c437 426 489 478 495 504 8 31 -12 76
-36 80 -8 2 -26 5 -40 8 -40 7 -114 18 -130 18 -13 0 -62 6 -195 23 -16 2 -55
6 -85 9 -52 5 -104 12 -175 21 -16 2 -39 -1 -50 -7z"/>
<path d="M7193 8898 c-31 -46 -61 -87 -66 -93 -11 -14 -399 -562 -417 -589 -8
-13 -35 -52 -60 -86 -25 -35 -61 -87 -81 -115 -77 -112 -104 -150 -110 -155
-3 -3 -34 -47 -69 -98 -35 -51 -67 -95 -72 -98 -5 -3 -540 -6 -1190 -6 -970 0
-1183 3 -1194 14 -7 7 -74 99 -148 203 -74 105 -139 195 -144 200 -4 6 -30 42
-57 80 -58 84 -98 138 -106 145 -3 3 -8 10 -10 15 -2 6 -53 79 -114 163 -60
85 -114 161 -120 170 -5 9 -12 19 -15 22 -3 3 -35 46 -70 95 -35 50 -68 92
-72 93 -4 2 -8 9 -8 16 0 7 -8 21 -19 32 -10 11 -24 30 -30 42 -6 12 -15 22
-19 22 -4 0 -7 -1286 -7 -2857 0 -1572 -1 -2865 -3 -2875 -3 -12 -12 -15 -35
-13 -18 2 -63 6 -102 9 -38 4 -81 8 -95 10 -14 3 -59 10 -100 16 -41 7 -84 14
-95 17 -26 5 -54 11 -85 18 -14 4 -36 8 -50 11 -29 6 -78 21 -135 41 -22 8
-41 14 -43 13 -3 -2 -105 36 -152 57 -71 31 -196 96 -238 124 -24 16 -46 29
-49 29 -5 0 -63 44 -112 85 -35 29 -121 120 -139 147 -9 13 -19 25 -22 28 -28
22 -138 219 -160 284 -7 21 -18 50 -26 64 -8 15 -14 34 -14 42 0 8 -7 33 -14
55 -81 231 -89 664 -20 975 19 88 64 232 76 248 6 6 7 12 3 12 -4 0 0 11 9 25
9 14 14 25 12 25 -5 0 17 52 69 165 12 28 68 143 124 256 55 113 101 211 101
217 0 7 5 12 10 12 6 0 10 7 10 16 0 8 12 41 26 72 14 31 28 64 30 72 2 8 19
60 37 115 42 124 60 200 74 310 9 62 8 247 0 300 -3 22 -9 56 -12 74 -7 50
-35 153 -46 173 -5 10 -9 23 -9 28 0 6 -10 32 -22 58 -12 26 -22 49 -23 52 -1
13 -73 130 -108 179 -42 57 -133 150 -186 191 -57 43 -173 98 -256 121 -84 23
-217 30 -310 16 -27 -4 -62 -9 -76 -11 -76 -11 -246 -87 -292 -130 -100 -93
-53 -275 86 -336 61 -27 123 -25 197 7 66 29 153 50 195 47 50 -4 99 -15 110
-25 5 -5 15 -9 22 -9 36 0 161 -132 200 -211 32 -65 67 -166 79 -229 10 -53
12 -290 2 -296 -5 -3 -6 -9 -4 -13 6 -9 -27 -153 -49 -216 -43 -128 -77 -200
-308 -660 -29 -57 -68 -144 -68 -150 1 -3 -11 -31 -25 -62 -14 -32 -27 -65
-29 -73 -2 -8 -14 -49 -28 -90 -28 -84 -49 -158 -52 -180 -4 -25 -15 -84 -20
-100 -2 -8 -7 -35 -10 -60 -3 -25 -8 -56 -10 -70 -14 -94 -18 -155 -19 -305
-1 -93 1 -192 5 -220 6 -43 11 -81 25 -205 1 -14 3 -26 4 -27 3 -4 5 -12 14
-63 45 -248 171 -532 328 -738 65 -86 124 -148 222 -237 68 -61 130 -105 271
-192 20 -13 186 -96 195 -98 3 -1 23 -9 45 -19 53 -24 291 -103 335 -111 19
-4 39 -10 44 -13 6 -3 19 -7 30 -8 23 -2 73 -12 97 -20 9 -2 33 -7 53 -9 19
-3 55 -9 78 -14 24 -6 72 -13 107 -16 36 -3 67 -8 70 -10 27 -16 448 -20 2341
-20 l2174 0 1 3093 c0 1700 -1 3092 -2 3092 -1 0 -28 -37 -60 -82z m-2829
-2724 c3 -9 1 -24 -4 -34 -14 -26 -142 -86 -206 -98 -55 -9 -169 -8 -224 3
-19 4 -40 8 -47 9 -7 1 -16 5 -19 9 -4 4 -15 7 -24 7 -25 0 -137 58 -143 74
-3 8 0 22 8 32 11 16 16 17 54 4 22 -7 41 -17 41 -22 0 -4 3 -7 8 -6 4 0 14
-1 22 -5 109 -43 259 -52 350 -22 30 10 60 20 65 24 6 3 13 6 17 6 4 0 16 7
26 16 36 30 65 31 76 3z m2223 -11 c4 -10 -6 -21 -39 -48 -30 -25 -117 -60
-175 -71 -130 -24 -277 -2 -404 62 -50 25 -66 48 -48 70 13 16 59 19 59 4 0
-5 9 -10 20 -10 11 0 20 -4 20 -8 0 -8 105 -43 150 -49 63 -9 150 -8 199 3 53
13 157 60 168 77 6 9 45 -14 50 -30z m-1359 -1498 c45 -47 84 -68 127 -69 29
0 85 29 115 59 41 43 75 46 84 9 8 -32 -14 -59 -88 -106 -42 -27 -58 -32 -110
-32 -70 1 -130 27 -173 74 -27 31 -42 30 -77 -6 -9 -8 -42 -28 -73 -44 -51
-26 -67 -29 -129 -26 -79 3 -128 26 -174 80 -35 41 -40 50 -31 64 16 27 48 21
79 -14 17 -19 35 -34 41 -34 6 0 11 -4 11 -10 0 -5 3 -9 8 -8 4 0 15 -2 24 -6
26 -12 98 -2 142 19 21 10 61 39 89 65 30 28 58 45 68 43 9 -3 39 -29 67 -58z"/>
<path d="M9458 7584 c-2 -1 -48 -6 -103 -9 -55 -4 -120 -9 -145 -11 -25 -2
-85 -6 -135 -10 -49 -4 -99 -7 -110 -8 -11 -1 -26 -5 -32 -9 -7 -5 -13 -5 -13
0 0 4 -7 -3 -16 -15 -19 -27 -11 -78 15 -91 18 -10 30 -10 373 15 l87 6 -149
-224 c-82 -122 -153 -227 -157 -233 -5 -5 -36 -52 -71 -104 -62 -95 -75 -137
-49 -160 13 -10 156 -8 277 4 25 2 86 7 135 10 186 11 203 13 221 23 40 21 22
100 -24 103 -21 2 -11 2 -107 -6 -126 -10 -186 -15 -246 -19 -31 -2 -66 -7
-78 -11 -14 -4 -21 -2 -21 7 0 10 154 253 240 378 97 143 181 280 186 305 3
20 1 35 -8 42 -13 10 -65 23 -70 17z"/>
<path d="M8049 6195 c-4 -3 -44 -10 -119 -19 -19 -3 -48 -7 -65 -10 -16 -2
-65 -10 -108 -17 -80 -12 -92 -19 -92 -54 0 -31 23 -43 64 -34 20 4 65 11 101
15 36 3 68 8 71 10 11 6 109 15 109 10 0 -3 -13 -28 -30 -54 -16 -27 -30 -54
-30 -60 0 -6 -3 -12 -8 -14 -11 -5 -190 -323 -197 -350 -13 -57 45 -66 211
-34 12 2 45 7 74 11 29 4 60 8 69 10 9 1 35 6 59 10 48 8 64 28 51 64 -8 21
-13 23 -62 16 -28 -3 -72 -9 -97 -12 -24 -2 -77 -10 -117 -17 -40 -7 -73 -11
-73 -10 0 2 61 111 135 241 129 226 149 273 124 289 -14 8 -65 15 -70 9z"/>
</g>
</svg>
